<?xml version="1.0" standalone="no"?>
<!DOCTYPE svg PUBLIC "-//W3C//DTD SVG 20010904//EN"
 "http://www.w3.org/TR/2001/REC-SVG-20010904/DTD/svg10.dtd">
<svg version="1.0" xmlns="http://www.w3.org/2000/svg"
 width="1000.000000pt" height="1000.000000pt" viewBox="0 0 1000.000000 1000.000000"
 preserveAspectRatio="xMidYMid meet">
<metadata>
Created by potrace 1.11, written by Peter Selinger 2001-2013
</metadata>
<g transform="translate(0.000000,1000.000000) scale(0.100000,-0.100000)"
fill="#000000" stroke="none">
<path d="M1387 9214 c-1 -1 -19 -4 -40 -7 -64 -8 -159 -62 -216 -122 -91 -96
-129 -214 -108 -335 5 -28 120 -327 157 -405 5 -11 41 -101 81 -200 39 -99 77
-193 84 -210 7 -16 46 -111 85 -210 40 -99 78 -193 85 -210 7 -16 31 -75 53
-130 22 -55 70 -174 107 -265 37 -91 123 -304 192 -475 69 -170 131 -323 138
-340 7 -16 70 -172 139 -345 70 -173 131 -324 136 -335 10 -22 361 -890 390
-965 10 -25 47 -117 83 -205 36 -88 95 -234 131 -325 37 -91 71 -174 76 -185
5 -11 32 -78 60 -150 28 -71 56 -139 61 -150 17 -38 160 -390 163 -405 3 -8
14 -37 26 -65 12 -27 74 -178 137 -335 63 -157 143 -355 178 -440 96 -237 265
-656 381 -945 58 -143 109 -269 114 -280 5 -11 26 -60 46 -110 59 -146 124
-214 244 -256 64 -22 70 -22 635 -22 556 0 571 1 629 22 87 31 159 90 210 171
12 19 44 89 70 155 26 66 54 134 61 150 7 17 31 75 53 130 98 244 194 482 202
500 5 11 19 45 30 75 11 30 25 64 30 75 5 11 34 83 65 160 31 77 60 149 65
160 8 17 212 522 281 695 12 30 27 69 35 85 7 17 27 66 44 110 17 44 37 94 45
110 7 17 63 154 123 305 166 413 291 723 301 745 5 11 16 38 25 60 61 154 180
445 192 472 8 17 14 34 14 38 0 4 7 21 14 38 8 18 54 129 102 247 47 118 115
287 151 375 103 253 205 505 282 700 39 99 78 194 86 210 8 17 28 66 45 110
17 44 35 89 40 100 5 11 43 103 84 205 240 597 309 768 321 795 25 58 145 356
145 361 0 3 8 24 19 47 10 23 51 123 90 222 40 99 78 194 85 210 41 92 50 169
30 263 -35 169 -169 299 -329 319 -33 5 -287 8 -565 7 -460 -1 -510 -2 -560
-19 -129 -43 -201 -114 -260 -257 -23 -57 -46 -112 -51 -123 -5 -11 -60 -152
-124 -312 -63 -161 -167 -425 -231 -585 -63 -161 -161 -408 -216 -548 -55
-140 -104 -264 -109 -275 -5 -11 -45 -112 -89 -225 -44 -113 -85 -214 -89
-225 -5 -11 -51 -126 -101 -255 -50 -129 -95 -244 -101 -255 -5 -11 -65 -164
-135 -340 -138 -352 -219 -557 -389 -985 -62 -157 -142 -359 -178 -450 -241
-610 -430 -1087 -436 -1098 -5 -9 -27 35 -59 115 -28 70 -148 373 -267 673
-119 300 -222 559 -229 575 -8 17 -17 41 -21 55 -4 14 -18 48 -31 77 -13 28
-24 54 -24 57 0 5 -302 769 -320 811 -11 25 -181 451 -370 930 -78 198 -148
374 -155 390 -7 17 -38 95 -70 175 -31 80 -61 156 -67 170 -6 14 -14 34 -19
45 -74 185 -92 235 -88 240 3 2 443 5 977 5 967 0 973 1 1030 22 115 42 191
115 240 229 l27 64 3 477 c2 338 -1 492 -9 525 -35 141 -131 248 -269 299 -41
15 -207 16 -1973 18 -1061 0 -1929 0 -1930 0z"/>
</g>
</svg>
