<svg xmlns="http://www.w3.org/2000/svg" viewBox="0 0 93 25" preserveAspectRatio="xMidYMid meet" class="logo" id="ggcghfcf" style="height: auto;"><g fill="#6f45c3"><path d="M14.1 5.32 c0.14 0.2 0.16 0.44 0.08 0.66 l-5.48 13.54 c-0.12 0.28 -0.38 0.44 -0.66 0.44 l-1.76 0 c-0.3 0 -0.56 -0.16 -0.66 -0.44 l-5.48 -13.54 c-0.1 -0.22 -0.08 -0.46 0.06 -0.66 s0.36 -0.32 0.58 -0.32 l6.68 0 c0.38 0 0.7 0.32 0.7 0.72 l0 1.46 c0 0.4 -0.32 0.72 -0.7 0.72 l-3.36 0 l3.06 7.7 l4.02 -10.16 c0.1 -0.26 0.36 -0.44 0.66 -0.44 l1.68 0 c0.24 0 0.46 0.12 0.58 0.32 z M22.520000000000003 5 c2.16 0 3.98 0.74 5.38 2.2 c1.36 1.42 2.06 3.2 2.06 5.3 s-0.7 3.88 -2.06 5.3 c-1.4 1.46 -3.22 2.2 -5.38 2.2 s-3.98 -0.74 -5.38 -2.2 c-1.36 -1.42 -2.06 -3.2 -2.06 -5.3 s0.7 -3.88 2.06 -5.3 c1.4 -1.46 3.22 -2.2 5.38 -2.2 z M22.520000000000003 17.14 c1.4 0 2.48 -0.44 3.32 -1.32 c0.82 -0.86 1.22 -1.96 1.22 -3.32 s-0.4 -2.44 -1.22 -3.32 c-0.84 -0.88 -1.92 -1.32 -3.32 -1.32 s-2.48 0.44 -3.32 1.32 c-0.82 0.88 -1.22 1.96 -1.22 3.32 s0.4 2.46 1.22 3.32 c0.84 0.88 1.92 1.32 3.32 1.32 z M34.56 5 c0.38 0 0.7 0.32 0.7 0.7 l0 13.28 c0 0.38 -0.32 0.7 -0.7 0.7 l-1.5 0 c-0.38 0 -0.7 -0.32 -0.7 -0.7 l0 -13.28 c0 -0.38 0.32 -0.7 0.7 -0.7 l1.5 0 z M43.02 8.22 c-0.52 0.22 -0.98 0.54 -1.34 0.96 c-0.76 0.84 -1.12 1.94 -1.12 3.32 s0.36 2.48 1.12 3.34 c0.78 0.88 1.9 1.3 3.44 1.3 c0.82 0 1.5 -0.2 2.1 -0.6 c0.62 -0.42 1.06 -0.94 1.36 -1.64 c0.1 -0.26 0.36 -0.42 0.64 -0.42 l1.58 0 c0.22 0 0.44 0.1 0.56 0.28 c0.14 0.2 0.18 0.42 0.1 0.64 c-0.5 1.4 -1.32 2.5 -2.44 3.3 c-1.2 0.86 -2.62 1.3 -4.24 1.3 c-2.14 0 -3.9 -0.74 -5.24 -2.22 c-1.24 -1.4 -1.88 -3.18 -1.88 -5.28 s0.64 -3.88 1.88 -5.28 c1.34 -1.48 3.1 -2.22 5.24 -2.22 c1.62 0 3.04 0.44 4.24 1.3 c1.12 0.8 1.94 1.92 2.44 3.3 c0.08 0.22 0.04 0.46 -0.1 0.64 c-0.12 0.18 -0.34 0.28 -0.56 0.28 l-1.58 0 c-0.28 0 -0.54 -0.16 -0.64 -0.42 c-0.3 -0.7 -0.74 -1.22 -1.36 -1.64 c-0.6 -0.4 -1.28 -0.6 -2.1 -0.6 c-0.86 0 -1.56 0.12 -2.1 0.36 z M64.22 5 c0.4 0 0.7 0.32 0.7 0.7 l0 1.44 c0 0.38 -0.3 0.7 -0.7 0.7 l-7.56 0 l0 3.06 l6.68 0 c0.4 0 0.7 0.32 0.7 0.7 l0 1.46 c0 0.38 -0.3 0.7 -0.7 0.7 l-6.68 0 l0 3.08 l7.56 0 c0.4 0 0.7 0.32 0.7 0.7 l0 1.44 c0 0.38 -0.3 0.7 -0.7 0.7 l-9.76 0 c-0.38 0 -0.7 -0.32 -0.7 -0.7 l0 -13.28 c0 -0.38 0.32 -0.7 0.7 -0.7 l9.76 0 z M77.8 5 c0.4 0 0.7 0.32 0.7 0.7 l0 1.44 c0 0.38 -0.3 0.7 -0.7 0.7 l-7.56 0 l0 3.06 l6.68 0 c0.4 0 0.7 0.32 0.7 0.7 l0 1.46 c0 0.38 -0.3 0.7 -0.7 0.7 l-6.68 0 l0 3.08 l7.56 0 c0.4 0 0.7 0.32 0.7 0.7 l0 1.44 c0 0.38 -0.3 0.7 -0.7 0.7 l-9.76 0 c-0.38 0 -0.7 -0.32 -0.7 -0.7 l0 -13.28 c0 -0.38 0.32 -0.7 0.7 -0.7 l9.76 0 z M87.6 5 c1.58 0 2.86 0.46 3.82 1.36 s1.44 2.12 1.44 3.62 s-0.48 2.72 -1.44 3.62 s-2.24 1.34 -3.82 1.34 l-3.78 0 l0 4.04 c0 0.38 -0.32 0.7 -0.7 0.7 l-1.5 0 c-0.38 0 -0.7 -0.32 -0.7 -0.7 l0 -13.28 c0 -0.38 0.32 -0.7 0.7 -0.7 l5.98 0 z M83.82 7.82 l0 4.32 l3.68 0 c0.86 0 1.48 -0.18 1.88 -0.56 s0.58 -0.9 0.58 -1.6 s-0.18 -1.22 -0.58 -1.58 c-0.4 -0.38 -1.04 -0.58 -1.88 -0.58 l-3.68 0 z"></path></g></svg>
